<svg xmlns="http://www.w3.org/2000/svg" viewBox="0 0 260 260"><defs><style>.cls-1{fill:#ed1c24;}.cls-2,.cls-5{fill:#c34448;}.cls-3{fill:#fff;}.cls-4{fill:none;}.cls-5{stroke:#c34448;stroke-linejoin:round;stroke-width:0.75px;}</style></defs><title>Logo</title><g id="Layer_1" data-name="Layer 1"><path class="cls-1" d="M247,468.51q-2.4-2-4.66-4.06Q244.59,466.57,247,468.51Z" transform="translate(-176 -266)"/><path class="cls-1" d="M249.41,470.43c-.8-.61-1.6-1.24-2.39-1.88C247.81,469.19,248.61,469.82,249.41,470.43Z" transform="translate(-176 -266)"/><path class="cls-1" d="M260,477.43c-1.8-1-3.57-2.1-5.29-3.23C256.46,475.33,258.23,476.41,260,477.43Z" transform="translate(-176 -266)"/><path class="cls-1" d="M274.55,484.07c-2-.7-3.92-1.48-5.84-2.31C270.63,482.59,272.57,483.37,274.55,484.07Z" transform="translate(-176 -266)"/><path class="cls-1" d="M254.56,474.08q-2.58-1.69-5-3.57Q252,472.39,254.56,474.08Z" transform="translate(-176 -266)"/><path class="cls-1" d="M268.53,481.68q-2.88-1.26-5.65-2.7Q265.66,480.42,268.53,481.68Z" transform="translate(-176 -266)"/><path class="cls-1" d="M275.12,460.35l-.2-.28Z" transform="translate(-176 -266)"/><path class="cls-1" d="M279.45,478.91c0-.1,0-.2,0-.3C279.47,478.71,279.46,478.81,279.45,478.91Z" transform="translate(-176 -266)"/><path class="cls-1" d="M273.86,458.71l-.07-.09Z" transform="translate(-176 -266)"/><path class="cls-1" d="M279.44,471a2,2,0,0,1,0-.24A2,2,0,0,0,279.44,471Z" transform="translate(-176 -266)"/><path class="cls-1" d="M271.23,456l-.17-.14Z" transform="translate(-176 -266)"/><path class="cls-1" d="M279.61,477.63c0-.19,0-.39.05-.59C279.64,477.24,279.63,477.44,279.61,477.63Z" transform="translate(-176 -266)"/><path class="cls-1" d="M279.68,473.17l0-.41Z" transform="translate(-176 -266)"/><path class="cls-1" d="M276.08,461.82h0Z" transform="translate(-176 -266)"/><path class="cls-1" d="M277.08,463.64l-.16-.32Z" transform="translate(-176 -266)"/><path class="cls-1" d="M279.72,476.33c0-.44,0-.88,0-1.33C279.75,475.45,279.74,475.89,279.72,476.33Z" transform="translate(-176 -266)"/><path class="cls-1" d="M279.22,480.17l0-.13Z" transform="translate(-176 -266)"/><path class="cls-1" d="M279.08,469.21c0-.11-.05-.23-.08-.34C279,469,279.06,469.1,279.08,469.21Z" transform="translate(-176 -266)"/><path class="cls-1" d="M272.48,457.18l.2.21Z" transform="translate(-176 -266)"/><path class="cls-1" d="M278.93,481.4v0Z" transform="translate(-176 -266)"/><path class="cls-1" d="M269.79,454.79l-.14-.11Z" transform="translate(-176 -266)"/><path class="cls-1" d="M278.53,467.21c0-.11-.07-.21-.1-.32C278.46,467,278.5,467.1,278.53,467.21Z" transform="translate(-176 -266)"/><path class="cls-1" d="M268.22,453.67l-.23-.15Z" transform="translate(-176 -266)"/><path class="cls-1" d="M277.89,465.43c0-.08-.06-.16-.09-.23S277.85,465.35,277.89,465.43Z" transform="translate(-176 -266)"/><path class="cls-1" d="M264.87,451.82l-.27-.12Z" transform="translate(-176 -266)"/><path class="cls-1" d="M277.66,485.12c-1-.32-2-.65-3-1C275.66,484.47,276.66,484.8,277.66,485.12Z" transform="translate(-176 -266)"/><path class="cls-1" d="M237.81,460c1.4,1.49,2.85,2.94,4.35,4.33C240.66,462.91,239.21,461.46,237.81,460Z" transform="translate(-176 -266)"/><path class="cls-1" d="M262.82,479q-1.36-.7-2.7-1.47Q261.46,478.25,262.82,479Z" transform="translate(-176 -266)"/><path class="cls-1" d="M237.69,459.83c-.69-.74-1.38-1.49-2.05-2.26C236.31,458.34,237,459.09,237.69,459.83Z" transform="translate(-176 -266)"/><path class="cls-1" d="M264.87,451.82a24.79,24.79,0,0,1,3.12,1.7A24.79,24.79,0,0,0,264.87,451.82Z" transform="translate(-176 -266)"/><path class="cls-1" d="M279.22,480.17c-.08.41-.18.81-.28,1.21C279,481,279.14,480.58,279.22,480.17Z" transform="translate(-176 -266)"/><path class="cls-1" d="M262.93,451c.57.2,1.13.43,1.67.68C264.06,451.45,263.5,451.22,262.93,451Z" transform="translate(-176 -266)"/><path class="cls-1" d="M272.68,457.39q.57.6,1.11,1.23Q273.25,458,272.68,457.39Z" transform="translate(-176 -266)"/><path class="cls-1" d="M271.23,456c.43.39.85.79,1.25,1.2C272.08,456.77,271.66,456.37,271.23,456Z" transform="translate(-176 -266)"/><path class="cls-1" d="M268.22,453.67c.49.32,1,.66,1.43,1C269.19,454.33,268.71,454,268.22,453.67Z" transform="translate(-176 -266)"/><path class="cls-1" d="M269.79,454.79c.44.34.86.68,1.27,1C270.65,455.47,270.23,455.13,269.79,454.79Z" transform="translate(-176 -266)"/><path class="cls-1" d="M277.72,485h0a24.18,24.18,0,0,0,1.21-3.57A24.18,24.18,0,0,1,277.72,485Z" transform="translate(-176 -266)"/><path class="cls-1" d="M279.44,471c.09.58.16,1.16.21,1.75C279.6,472.17,279.53,471.59,279.44,471Z" transform="translate(-176 -266)"/><path class="cls-1" d="M278.53,467.21c.18.54.33,1.1.47,1.66C278.86,468.31,278.71,467.75,278.53,467.21Z" transform="translate(-176 -266)"/><path class="cls-1" d="M279.72,476.33l-.06.71Z" transform="translate(-176 -266)"/><path class="cls-1" d="M279.68,473.17c0,.61.07,1.22.07,1.83C279.75,474.39,279.72,473.78,279.68,473.17Z" transform="translate(-176 -266)"/><path class="cls-1" d="M279.08,469.21c.12.52.23,1,.32,1.56C279.31,470.25,279.2,469.73,279.08,469.21Z" transform="translate(-176 -266)"/><path class="cls-1" d="M277.89,465.43c.19.48.37,1,.54,1.46C278.26,466.4,278.08,465.91,277.89,465.43Z" transform="translate(-176 -266)"/><path class="cls-1" d="M279.45,478.91c-.06.38-.13.76-.2,1.13C279.32,479.67,279.39,479.29,279.45,478.91Z" transform="translate(-176 -266)"/><path class="cls-1" d="M273.86,458.71c.37.44.72.9,1.06,1.36C274.58,459.61,274.23,459.15,273.86,458.71Z" transform="translate(-176 -266)"/><path class="cls-1" d="M275.12,460.35c.33.48.65,1,1,1.46C275.77,461.31,275.45,460.83,275.12,460.35Z" transform="translate(-176 -266)"/><path class="cls-1" d="M277.08,463.64q.38.76.72,1.56Q277.46,464.41,277.08,463.64Z" transform="translate(-176 -266)"/><path class="cls-1" d="M276.08,461.82c.3.49.57,1,.84,1.5C276.65,462.81,276.38,462.31,276.08,461.82Z" transform="translate(-176 -266)"/><path class="cls-1" d="M279.61,477.63c0,.33-.08.66-.12,1C279.53,478.29,279.58,478,279.61,477.63Z" transform="translate(-176 -266)"/><path class="cls-2" d="M306,522.5A126.5,126.5,0,1,1,432.5,396,126.65,126.65,0,0,1,306,522.5Zm-27.22-40.87a89.9,89.9,0,0,0,95-26.69,57.39,57.39,0,0,0-107.62-2.63l-1.25,3.15-3.19-1.15a22,22,0,0,0-21.18,3.47,90,90,0,0,0,35.14,23l0-.09Z" transform="translate(-176 -266)"/><path class="cls-3" d="M306,273A123,123,0,1,1,183,396,123,123,0,0,1,306,273M212.5,396a93.15,93.15,0,0,0,23.14,61.57h0a93.52,93.52,0,0,0,42,27.55h0A93.51,93.51,0,1,0,212.5,396M306,302.51A93.48,93.48,0,0,1,399.49,396h-187A93.49,93.49,0,0,1,306,302.51M399.5,396h0m0,0a93.57,93.57,0,0,1-121.83,89.12l.06-.15a93.42,93.42,0,0,0,100-29.25,60.88,60.88,0,0,0-114.8-4.7h0a25.51,25.51,0,0,0-27.29,6.55A93.16,93.16,0,0,1,212.51,396h187m-187,0h0m50.42,55h0M306,266a130,130,0,1,0,91.92,38.08A129.12,129.12,0,0,0,306,266ZM266.93,459.91l2.51-6.3a53.88,53.88,0,0,1,100.36.56,86.43,86.43,0,0,1-90,24.13l-5.07-1.61a86.5,86.5,0,0,1-28.68-18.31,18.62,18.62,0,0,1,14.46-.78l6.38,2.31Z" transform="translate(-176 -266)"/><path class="cls-3" d="M306,302.5A93.5,93.5,0,0,0,212.5,396h187A93.5,93.5,0,0,0,306,302.5Z" transform="translate(-176 -266)"/><polygon class="cls-2" points="65.81 77.81 78.19 65.44 90.56 77.81 115.31 102.56 102.94 114.94 65.81 77.81"/><rect class="cls-2" x="240.31" y="347.44" width="52.5" height="17.5" transform="translate(-349.79 26.81) rotate(-45)"/><path class="cls-4" d="M264,341.28" transform="translate(-176 -266)"/><polygon class="cls-2" points="144.19 77.81 156.56 65.44 168.94 77.81 193.69 102.56 181.31 114.94 144.19 77.81"/><rect class="cls-2" x="318.69" y="347.44" width="52.5" height="17.5" transform="translate(-326.83 82.23) rotate(-45)"/><line class="cls-4" x1="223.5" y1="130" x2="36.5" y2="130"/></g><g id="Layer_3" data-name="Layer 3"><path class="cls-2" d="M306,522.5A126.5,126.5,0,1,1,432.5,396,126.65,126.65,0,0,1,306,522.5Zm-37.46-44.65c1.67.77,3.41,1.5,5.15,2.17l.35.14c.81.3,1.58.58,2.36.85l.3.11c1.73.59,3.5,1.14,5.28,1.63l.48.13c.8.22,1.53.41,2.27.58l.51.13c1.75.41,3.56.78,5.37,1.09l.7.12c.7.12,1.39.22,2.09.32l.7.1c.91.12,1.82.23,2.74.32H297c.84.08,1.73.16,2.61.22l.8.05c.69,0,1.37.08,2.05.1l.8,0c.94,0,1.86.05,2.79.05s1.64,0,2.46,0l.79,0,1.65-.06,1-.06,1.48-.11,1-.09,1.44-.14,1-.11,1.42-.18,1-.14,1.46-.22.91-.15,1.51-.28.83-.16c.57-.11,1.13-.23,1.7-.36l.6-.13c1.57-.36,3.13-.76,4.65-1.2l.27-.08c.67-.19,1.34-.39,2-.6l.52-.17c.59-.19,1.15-.37,1.72-.57l.63-.22,1.6-.58.62-.24,1.6-.62.6-.25,1.63-.69.52-.23,1.74-.79.35-.17c.7-.33,1.37-.66,2-1a90.7,90.7,0,0,0,8.36-4.82l2,2.87-1.91-2.93c.63-.41,1.25-.82,1.86-1.24l.18-.13c.59-.4,1.18-.82,1.76-1.25l.16-.11c.61-.45,1.2-.89,1.78-1.34l2.25,2.69-2.14-2.77a90.57,90.57,0,0,0,12.55-11.76,56.85,56.85,0,0,0-107.31-3.27,3.49,3.49,0,0,1-3.26,2.24,3.67,3.67,0,0,1-1-.15,23.28,23.28,0,0,0-21,3.77,89.48,89.48,0,0,0,24.87,18.4l.26.13c.79.39,1.59.77,2.39,1.14L267.08,481Z" transform="translate(-176 -266)"/><path class="cls-3" d="M306,273A123,123,0,1,1,183,396,123,123,0,0,1,306,273M262.9,451h0a26.89,26.89,0,0,0-7.86-1.17,26.61,26.61,0,0,0-19.11,8.05,94,94,0,0,0,28.28,21.77l.28.13c.82.41,1.64.81,2.48,1.19l.11,0c1.76.81,3.54,1.56,5.36,2.26l.4.15c.8.31,1.6.6,2.41.88l.31.11q2.71.93,5.49,1.7l.57.15c.76.21,1.52.4,2.29.59l.53.13q2.76.64,5.58,1.13c.24.05.48.08.73.12.72.12,1.44.23,2.17.33l.72.11c.95.12,1.89.24,2.84.33h.09c.91.09,1.82.16,2.74.23l.84.05c.71.05,1.41.08,2.12.11l.85,0c.95,0,1.91.05,2.88.05s1.7,0,2.55,0c.28,0,.55,0,.82,0l1.72-.07,1-.06,1.54-.11,1-.09,1.5-.15,1-.11,1.48-.19,1-.14c.51-.08,1-.15,1.51-.24l.95-.15,1.57-.29.86-.17,1.76-.37.64-.14c1.62-.37,3.23-.79,4.82-1.24l.29-.09c.69-.2,1.38-.4,2.07-.62l.56-.18,1.77-.59.65-.23,1.67-.6.65-.25,1.65-.65.62-.25,1.69-.72.54-.24c.61-.27,1.21-.54,1.81-.83l.39-.18c.7-.33,1.41-.68,2.1-1l.05,0a93,93,0,0,0,8.63-5l.1-.07c.65-.42,1.3-.85,1.94-1.29l.17-.12c.62-.43,1.23-.87,1.84-1.31l.18-.13c.62-.45,1.23-.91,1.84-1.37l.11-.09a94.64,94.64,0,0,0,14.32-13.69A60.36,60.36,0,0,0,262.9,451m0,0h0M306,266a130,130,0,1,0,91.92,38.08A129.12,129.12,0,0,0,306,266ZM262.9,458a7,7,0,0,0,6.53-4.49,53.36,53.36,0,0,1,100.08,1.19,86.6,86.6,0,0,1-10.73,9.82l-.1.08c-.56.43-1.13.85-1.7,1.27l-.17.12c-.56.41-1.12.81-1.7,1.21l-.09.06-.07.05c-.59.41-1.19.81-1.79,1.2l-.09.06a88.12,88.12,0,0,1-8,4.6l-.07,0c-.62.31-1.27.63-1.93.94l-.16.08-.2.09c-.55.26-1.11.52-1.67.76l-.34.15-.16.07L339,476l-.57.23q-.76.32-1.53.6l0,0-.56.21-1.54.56-.23.08-.37.13-1.64.55-.27.08-.24.08c-.64.2-1.28.4-1.92.58l-.21.06-.06,0c-1.45.42-2.95.8-4.45,1.14l-.28.06-.31.07-1.63.35-.49.09-.3.06-1.46.27-.74.12-.14,0-1.39.21-.93.13-1.36.17-.95.11-1.38.14h-.17l-.78.07-1.43.1-.31,0-.6,0-1.58.07h-.37l-.39,0-2.37,0c-.79,0-1.67,0-2.67-.05l-.54,0h-.24c-.66,0-1.31-.05-2-.09l-.2,0-.57,0c-.94-.07-1.77-.14-2.55-.22h-.11c-.79-.08-1.64-.18-2.59-.3l-.41-.06-.26,0-2-.3-.18,0-.5-.08c-1.73-.3-3.47-.66-5.16-1.06l-.25-.06-.23-.06c-.71-.17-1.42-.35-2.12-.54l-.15,0-.38-.1c-1.71-.47-3.42-1-5.07-1.57l-.11,0-.18-.06c-.73-.26-1.48-.53-2.22-.81l-.12,0-.26-.09c-1.68-.65-3.35-1.35-4.95-2.09l-.1,0c-.74-.35-1.52-.72-2.3-1.11l-.07,0-.19-.09a86.15,86.15,0,0,1-20.84-14.63,19.91,19.91,0,0,1,14.34-1.07,7,7,0,0,0,2.06.31Z" transform="translate(-176 -266)"/><path class="cls-3" d="M306,302.5A93.5,93.5,0,0,0,212.5,396h187A93.5,93.5,0,0,0,306,302.5Z" transform="translate(-176 -266)"/><polygon class="cls-5" points="115.31 77.81 102.94 65.44 90.56 77.81 78.19 65.44 65.81 77.81 78.19 90.19 65.81 102.56 78.19 114.94 90.56 102.56 102.94 114.94 115.31 102.56 102.94 90.19 115.31 77.81"/><polygon class="cls-5" points="193.69 77.81 181.31 65.44 168.94 77.81 156.56 65.44 144.19 77.81 156.56 90.19 144.19 102.56 156.56 114.94 168.94 102.56 181.31 114.94 193.69 102.56 181.31 90.19 193.69 77.81"/></g></svg>